<?xml version="1.0" encoding="UTF-8"?>
<svg id="Layer_1" data-name="Layer 1" xmlns="http://www.w3.org/2000/svg" viewBox="0 0 510.24 170.08">
  <defs>
    <style>
      .cls-1 {
        fill: #82bf2d;
      }

      .cls-1, .cls-2, .cls-3, .cls-4 {
        fill-rule: evenodd;
      }

      .cls-2 {
        fill: #009037;
      }

      .cls-5, .cls-4 {
        fill: #e8f0e2;
      }

      .cls-3 {
        fill: #53a434;
      }
    </style>
  </defs>
  <g>
    <polygon class="cls-2" points="193.14 112.82 170.34 112.82 186.51 23.98 209.31 23.98 193.14 112.82"/>
    <polygon class="cls-2" points="82.85 112.82 63.67 112.82 35.77 23.98 60.79 23.98 78.06 87.91 119.32 23.98 145.45 23.98 82.85 112.82"/>
    <polygon class="cls-2" points="155.54 112.82 132.74 112.82 148.91 23.98 171.71 23.98 155.54 112.82"/>
    <path class="cls-1" d="M430.48,48.62c0-.13.18-1.2.2-1.73.09-2.53-1.12-3.73-4.59-3.73h-40.04s-3.3,18.11-3.3,18.11h40.04c3.89,0,5.76-1.87,6.3-5.06l1.39-7.59h0ZM450.87,61.4c-2.29,13.19-6.26,19.05-23.35,19.05h-6.39s30.51,32.36,30.51,32.36h-29.47s-30.8-32.36-30.8-32.36h-12.23s-5.91,32.36-5.91,32.36h-22.8s16.17-88.84,16.17-88.84h71.18c11.26,0,17.18,5.33,16.83,15.05-.04,1.2-.23,2.53-.42,3.99l-3.31,18.38Z"/>
    <polygon class="cls-1" points="358.38 23.98 311.41 66.57 342.03 112.81 315.86 112.81 285.24 66.57 332.21 23.98 358.38 23.98"/>
    <polygon class="cls-3" points="316.8 23.98 269.83 66.57 300.46 112.81 274.28 112.81 243.66 66.57 290.63 23.98 316.8 23.98"/>
    <polygon class="cls-2" points="275.22 23.98 228.25 66.57 258.88 112.81 232.7 112.81 202.08 66.57 249.05 23.98 275.22 23.98"/>
  </g>

  <path class="cls-4" d="M466.55,38.26c-3.53,0-6.37-2.88-6.37-6.37,0-3.6,2.84-6.41,6.37-6.41s6.4,2.81,6.4,6.41c0,3.49-2.85,6.37-6.4,6.37h0ZM466.55,23.98c-4.37,0-7.91,3.51-7.91,7.91s3.54,7.91,7.91,7.91,7.91-3.55,7.91-7.91-3.51-7.91-7.91-7.91h0ZM465.33,29.26v2.18s1.71,0,1.71,0c.55,0,1.13-.42,1.13-1.04,0-.68-.59-1.13-1.13-1.13h-1.71ZM468.11,32.86c.74-.22,1.79-.99,1.79-2.47,0-1.61-1.48-2.6-2.86-2.6h-3.4s0,8.22,0,8.22h1.69s0-3.04,0-3.04h.84s2,3.04,2,3.04h2.06s-2.11-3.15-2.11-3.15Z"/>
</svg>